<svg version="1.1" id="Layer_1" xmlns="http://www.w3.org/2000/svg" xmlns:xlink="http://www.w3.org/1999/xlink" x="0px" y="0px"
	 width="100%" viewBox="0 0 512 512" enable-background="new 0 0 512 512" xml:space="preserve">
<path fill="#000000" opacity="1.000000" stroke="none" 
	d="
M244.000000,513.000000 
	C162.686386,513.000000 81.872772,513.000000 1.059162,513.000000 
	C1.039443,512.853088 1.002438,512.706177 1.002436,512.559265 
	C0.999985,342.100861 1.000000,171.642471 1.000000,1.092035 
	C171.563629,1.092035 342.127350,1.092035 512.845520,1.092035 
	C512.845520,171.666565 512.845520,342.333252 512.845520,513.000000 
	C423.456024,513.000000 333.977997,513.000000 244.000000,513.000000 
M452.926605,296.937958 
	C452.937317,299.437073 452.680084,301.975342 453.037415,304.423859 
	C453.365906,306.674713 454.356140,308.829010 455.717407,310.640289 
	C457.455872,305.015564 458.578766,299.420502 454.297089,294.058899 
	C453.882538,294.049713 453.468018,294.040497 452.738251,294.359619 
	C452.797913,294.908875 452.857574,295.458130 452.926605,296.937958 
M281.344910,270.661774 
	C284.393768,272.704437 287.318359,272.947205 290.050751,269.117462 
	C290.043823,257.803375 290.043579,246.489288 290.027679,235.175232 
	C290.017151,227.675903 288.631683,226.735596 280.520905,228.962646 
	C280.520905,228.962646 280.086639,228.948395 279.500305,229.564590 
	C279.302399,242.909012 279.099365,256.253357 278.964203,269.598419 
	C278.962524,269.765106 279.829193,269.940582 280.643005,270.049469 
	C280.643005,270.049469 280.997559,270.000000 281.000000,270.000000 
	C281.000000,270.000000 281.000519,270.002411 281.344910,270.661774 
M321.978821,285.943634 
	C372.869507,285.943634 423.760223,285.943634 475.019165,285.943634 
	C474.910126,283.730957 474.825653,282.017151 474.728760,280.050873 
	C458.471313,280.050873 442.680847,280.033508 426.890442,280.054413 
	C391.606720,280.101105 356.322998,280.166809 320.106445,280.059998 
	C274.846802,280.059998 229.587189,280.059998 184.324203,280.059998 
	C184.017288,281.868011 183.756958,283.401611 183.382187,285.609375 
	C185.120789,285.740509 186.677856,285.953186 188.235764,285.959534 
	C196.725052,285.993866 205.214584,285.989105 213.703995,285.976379 
	C249.488754,285.922791 285.273499,285.861633 321.978821,285.943634 
M30.246420,235.409378 
	C30.169004,246.745132 30.079525,258.080872 30.056257,269.416748 
	C30.055281,269.892822 30.670889,270.370148 31.928547,270.964447 
	C37.081665,270.981171 42.263409,270.678528 47.376949,271.136841 
	C50.348026,271.403076 51.074230,270.416199 52.215992,267.905396 
	C55.302399,261.118195 58.705563,254.426727 62.587036,248.065811 
	C65.328835,243.572632 69.056366,239.680939 72.858543,234.869339 
	C58.327087,234.869339 44.628895,234.869339 30.246420,235.409378 
M438.324890,253.281693 
	C440.863556,252.885590 443.389404,252.317612 445.943420,252.127228 
	C452.308197,251.652786 458.685852,251.350174 465.007355,250.092728 
	C464.987885,248.596756 465.149384,247.072189 464.918152,245.609695 
	C463.816772,238.643524 462.594421,230.877701 455.081299,228.521606 
	C442.246002,224.496475 430.311646,226.576355 426.763275,242.776093 
	C424.631500,252.508591 425.409668,262.030487 434.234131,268.448456 
	C441.965088,274.071167 450.637909,273.849304 459.355225,270.300629 
	C463.206360,268.732910 463.817566,265.556549 462.339355,262.624481 
	C461.711273,261.378601 458.310608,261.436523 456.138428,261.115082 
	C455.397888,261.005524 454.574921,261.617462 453.765686,261.782227 
	C445.645752,263.435608 439.562592,260.415802 438.324890,253.281693 
M248.773117,254.107132 
	C252.075439,258.457520 255.343643,262.834381 258.688812,267.151581 
	C262.810669,272.471161 267.809296,273.576233 274.562805,270.502014 
	C273.886322,269.363678 273.307434,268.210266 272.566101,267.172913 
	C269.187958,262.445953 265.811401,257.716492 262.340973,253.057404 
	C259.813904,249.664734 259.586182,246.894333 262.786865,243.420609 
	C267.105804,238.733170 270.673767,233.353790 274.653381,228.154556 
	C266.751190,225.449936 262.683441,226.481995 258.342743,232.218430 
	C254.895905,236.773636 251.582779,241.430008 248.128922,246.152679 
	C247.506378,245.449402 247.120758,245.218048 247.115417,244.978241 
	C246.904877,235.519104 246.807617,226.056335 246.466125,216.602341 
	C246.413071,215.133041 245.591537,212.775986 244.566650,212.414764 
	C239.972931,210.795746 236.100082,213.804947 236.059143,218.629929 
	C235.970169,229.118057 235.917221,239.606506 235.192017,250.367752 
	C233.143402,250.950729 231.094803,251.533722 228.977951,251.274933 
	C229.384064,244.628784 225.699280,240.982758 220.021988,238.461517 
	C216.258194,236.790039 212.487259,234.893265 209.204773,232.446396 
	C205.839188,229.937561 206.595474,226.586502 210.305054,224.539581 
	C214.552979,222.195679 218.679230,223.534576 222.828979,224.716827 
	C225.082596,225.358871 227.910751,226.558105 228.534836,223.241043 
	C229.114624,220.159546 230.868164,215.484070 225.807388,214.592957 
	C219.848083,213.543640 213.573227,212.835663 207.626221,213.556244 
	C201.068054,214.350845 195.746613,221.363602 195.580978,227.157288 
	C195.271393,237.987564 198.486465,242.412445 208.785217,246.837265 
	C212.131836,248.275131 214.908905,251.038620 217.080856,253.254562 
	C214.024597,252.691132 210.505508,252.909042 207.995972,251.422592 
	C199.318848,246.283020 190.337311,241.330612 182.666016,234.885391 
	C164.899216,219.958191 144.842880,212.733994 121.846664,215.223068 
	C113.409233,216.136337 104.811249,218.450333 97.028374,221.832504 
	C86.099197,226.582001 77.069885,234.474777 69.124649,243.421616 
	C61.893871,251.563950 56.478683,260.906342 53.143551,271.167297 
	C48.465153,285.560974 47.516056,300.340729 51.004227,315.251404 
	C55.012070,332.383453 62.872620,347.209564 77.308578,359.387573 
	C76.734100,357.908966 76.557671,357.357178 76.309555,356.839752 
	C75.960487,356.111786 75.663673,355.323517 75.163353,354.708435 
	C62.443436,339.070709 57.639336,320.553558 57.307858,301.035919 
	C57.162327,292.467316 60.062618,283.791687 62.012718,275.263611 
	C63.176384,270.174713 70.071419,269.060608 73.981766,273.968750 
	C73.981766,287.890717 73.981766,301.812653 73.981766,315.847382 
	C79.709152,315.847382 84.840942,315.847382 90.905403,315.978058 
	C97.065437,315.985809 103.230408,315.848694 109.383568,316.058319 
	C112.816719,316.175293 114.151848,315.054626 114.055336,311.502319 
	C113.851936,304.015869 113.995583,296.519958 113.996216,289.027954 
	C113.996719,283.101685 113.996323,277.175415 113.996323,270.766724 
	C128.029251,270.766724 141.415024,270.766724 154.774170,270.766724 
	C154.774170,258.666565 154.774170,247.070328 154.774170,234.993378 
	C141.163437,234.993378 127.768082,234.993378 114.191757,234.993378 
	C114.191757,232.233398 114.191757,229.954514 114.191757,227.301743 
	C126.908745,223.627472 139.830627,222.473572 152.856354,225.470062 
	C165.496262,228.377777 175.928680,235.611481 185.985046,243.437988 
	C195.486862,250.832932 205.244431,257.718475 217.599274,258.702362 
	C210.429062,265.236938 203.821960,259.673828 197.045654,257.745667 
	C194.063980,262.500916 194.094772,267.837097 197.428558,269.574646 
	C205.798798,273.937073 214.438721,273.813995 222.664917,269.486328 
	C228.250885,266.547607 229.530472,262.588593 228.776901,256.977844 
	C230.495468,256.639343 232.214035,256.300873 234.547760,256.455902 
	C235.055817,260.311188 235.834488,264.155060 235.997223,268.024872 
	C236.166183,272.043213 238.693024,271.995178 241.484726,271.928528 
	C244.316193,271.860931 247.480042,272.290833 247.588882,268.006287 
	C247.706924,263.360352 247.799683,258.713806 248.024643,253.970840 
	C248.024643,253.970840 248.143906,253.871826 248.773117,254.107132 
M85.155937,210.394348 
	C97.044998,217.436371 106.183037,215.522598 114.606537,208.749939 
	C123.684189,201.451294 123.843109,189.281326 119.298035,177.516235 
	C123.149773,175.052200 126.957550,172.215759 131.107941,170.029800 
	C150.207153,159.970551 170.568253,158.760620 191.456039,161.978058 
	C211.738846,165.102310 230.119461,172.121857 243.058350,189.070770 
	C249.597519,197.636566 253.873840,207.202423 252.219101,218.466568 
	C251.338425,224.461487 250.467484,230.457825 249.592133,236.453522 
	C255.899017,228.587708 258.142059,220.023178 257.141632,210.242493 
	C256.006775,199.147903 251.662903,189.739838 244.211243,181.826202 
	C226.960831,163.506348 204.375351,157.813843 180.426880,156.145538 
	C172.898468,155.621094 165.221680,156.305328 157.680389,157.087753 
	C144.028214,158.504211 131.477646,163.329758 120.349068,171.337219 
	C117.165924,173.627640 115.282860,173.870026 111.904846,171.619843 
	C99.688499,163.482147 83.449593,167.929504 77.277657,181.170273 
	C73.318390,189.664154 75.093910,197.281387 78.756485,205.640900 
	C77.514381,204.602844 76.272278,203.564804 74.699219,202.250168 
	C74.699219,213.103043 74.699219,223.353622 74.699219,233.121460 
	C83.275833,227.801788 91.538460,222.676865 99.268661,217.882172 
	C95.232285,216.397232 90.911583,214.975739 86.761406,213.163681 
	C85.713524,212.706161 85.210449,211.000870 85.155937,210.394348 
M343.265289,258.250671 
	C339.259399,259.215881 335.300537,260.528870 331.238373,261.077698 
	C321.112946,262.445648 317.622009,258.428772 313.413239,252.134003 
	C309.339172,246.040771 311.442871,235.190674 315.673553,229.575775 
	C319.912750,223.949631 333.016815,222.466431 338.253479,224.790604 
	C340.450317,225.765625 342.763458,226.478699 345.138702,227.353195 
	C347.372650,213.489059 345.253052,213.947617 335.643066,212.794403 
	C332.534058,212.421295 329.345642,212.748657 326.220703,212.460968 
	C319.434601,211.836182 313.560272,214.686768 309.019318,218.826981 
	C299.329346,227.661804 297.473724,239.533478 299.941437,251.756454 
	C304.555695,274.611694 329.788818,275.894470 343.380157,269.726624 
	C345.161987,268.918030 346.384125,265.507477 346.637268,263.169098 
	C346.812653,261.548798 344.878357,259.700073 343.265289,258.250671 
M388.288391,252.737579 
	C388.163574,248.579590 388.096008,244.418900 387.899445,240.264297 
	C387.656738,235.134552 385.891022,230.984421 380.687378,228.893600 
	C372.261475,225.508072 364.056061,226.215439 356.390991,230.694122 
	C355.018585,231.496002 354.390625,235.018738 354.771667,237.028732 
	C355.315369,239.896362 357.695923,239.659836 360.350220,238.905411 
	C363.956818,237.880325 367.779694,237.357742 371.535614,237.186859 
	C375.527191,237.005264 377.344147,240.137955 377.103516,243.386276 
	C377.012085,244.620667 373.597168,245.946884 371.500305,246.586868 
	C369.846954,247.091507 367.891327,246.548355 366.071442,246.574417 
	C356.590942,246.710114 350.478333,253.761597 352.709656,262.924469 
	C353.424652,265.860443 356.144165,268.933807 358.788452,270.637970 
	C363.585358,273.729401 368.944397,273.098602 373.994873,270.444855 
	C375.690613,269.553833 376.854584,268.860992 379.048981,270.639099 
	C382.967682,273.814453 388.641479,271.531464 388.638458,267.349304 
	C388.635101,262.735229 388.460327,258.121277 388.288391,252.737579 
M399.071106,249.499756 
	C399.094574,255.489136 399.050171,261.479828 399.164764,267.467438 
	C399.244843,271.651367 402.168396,271.909790 405.448425,271.964050 
	C408.966064,272.022247 410.098999,270.468109 410.005035,267.118866 
	C409.841827,261.300079 409.940369,255.473038 409.979248,249.649780 
	C410.023987,242.955215 411.998749,240.447433 418.425751,238.766464 
	C419.550446,238.472305 421.297943,238.482468 421.672760,237.776184 
	C422.945190,235.378754 424.396454,232.756058 424.524994,230.157349 
	C424.667480,227.276657 422.108887,227.127029 419.737976,227.782394 
	C416.677704,228.628311 413.605377,229.430756 410.424957,230.282242 
	C409.584442,225.058136 405.078491,226.955963 401.902100,227.315872 
	C400.779175,227.443100 399.339691,230.652298 399.208466,232.535507 
	C398.839264,237.834442 399.075043,243.175507 399.071106,249.499756 
M306.922241,312.748840 
	C309.725891,312.483612 312.529510,312.218384 315.132355,311.972137 
	C314.843414,309.156433 314.558014,306.375183 314.239960,303.275970 
	C312.620087,303.908813 311.422424,304.376709 309.694580,305.051727 
	C309.868988,303.661530 309.970459,302.921997 310.053192,302.180389 
	C310.302734,299.943634 311.543579,296.678406 310.551453,295.714386 
	C309.132019,294.335114 305.799500,293.824219 303.817871,294.502502 
	C302.447693,294.971436 301.909271,298.046692 301.135651,300.011047 
	C300.726593,301.049683 300.740784,302.253906 300.338684,303.296539 
	C297.870392,309.697083 299.148712,311.823669 306.922241,312.748840 
M198.472198,310.646667 
	C200.885010,312.569733 201.794312,311.069153 201.894562,308.903290 
	C202.071533,305.079163 202.089188,301.233429 201.868134,297.414398 
	C201.806503,296.350006 200.737396,294.553558 200.015015,294.494049 
	C198.780228,294.392334 197.171539,295.104584 196.236740,296.009155 
	C195.011597,297.194672 194.288025,298.898560 192.981552,300.958344 
	C191.497879,298.538330 190.704361,296.383545 189.180573,295.087128 
	C188.292206,294.331360 185.720276,294.328552 184.812500,295.080902 
	C183.014725,296.570923 184.055344,309.617218 186.446320,312.987427 
	C186.789551,308.988190 187.057388,305.867310 187.372574,302.194763 
	C189.298798,304.712402 190.919403,306.830566 193.021393,309.577881 
	C194.730835,307.093140 195.970322,305.291473 197.700714,302.776276 
	C197.908676,305.739929 198.055542,307.832855 198.472198,310.646667 
M392.647400,306.126465 
	C393.708984,307.603729 394.625854,309.224243 395.889618,310.501434 
	C396.584290,311.203552 397.976471,311.791290 398.845856,311.578735 
	C399.673157,311.376434 400.783264,310.086273 400.814148,309.239563 
	C400.998047,304.196991 400.905090,299.144287 400.905090,294.095001 
	C400.193024,293.931763 399.480957,293.768494 398.768890,293.605255 
	C397.916016,296.300049 397.063141,298.994873 396.088135,302.075470 
	C394.231995,299.750458 392.695587,297.418274 390.725739,295.540955 
	C389.823334,294.680969 388.071625,294.488159 386.698334,294.468750 
	C386.223480,294.462036 385.279144,295.915894 385.315125,296.665924 
	C385.550507,301.576294 385.995911,306.476593 386.389465,311.598297 
	C390.344666,312.090942 389.781372,309.242889 389.993469,306.888580 
	C390.110870,305.585602 389.463745,302.419312 392.647400,306.126465 
M416.783813,294.200745 
	C415.294098,294.154419 413.799011,294.172516 412.315674,294.049316 
	C408.428986,293.726532 405.304077,295.634216 404.781281,299.078705 
	C404.249939,302.579285 404.429321,307.120453 406.319885,309.754211 
	C407.774475,311.780701 412.627960,312.741455 415.507782,312.100128 
	C422.682556,310.502441 423.653137,300.451019 416.783813,294.200745 
M329.356781,312.270660 
	C330.016266,312.203827 330.686340,312.190186 331.333618,312.061890 
	C337.480560,310.843231 339.765961,307.456543 338.900848,300.882690 
	C338.232819,295.806366 334.207520,293.522644 327.036377,294.051208 
	C320.370270,294.542542 323.876373,299.693024 323.030518,302.815125 
	C322.738190,303.894104 323.155396,305.146667 322.987396,306.281311 
	C322.335632,310.683960 324.440887,312.378052 329.356781,312.270660 
M371.242493,304.920990 
	C371.511658,303.180695 371.261749,300.316406 372.145996,299.908081 
	C374.948273,298.614014 378.174164,298.237305 381.896545,297.348175 
	C381.549438,293.106262 377.869171,294.327026 375.152100,294.061401 
	C370.822083,293.638153 368.443054,295.931763 366.935394,299.738068 
	C365.357971,303.720459 365.903870,307.290161 368.887512,310.230286 
	C371.846558,313.146118 375.660400,314.080200 379.343353,312.122498 
	C380.726196,311.387451 381.621887,308.867157 381.828461,307.056824 
	C382.000702,305.547363 381.257843,303.067017 380.161377,302.509705 
	C378.931030,301.884308 376.848022,302.936493 375.456787,303.198395 
	C376.159943,305.474548 376.566376,306.790192 376.972809,308.105865 
	C375.393921,307.719666 373.795197,307.395142 372.251312,306.899841 
	C371.904602,306.788635 371.749512,306.080170 371.242493,304.920990 
M221.094650,297.084412 
	C221.075562,299.747009 221.034332,302.409637 221.041718,305.072174 
	C221.060745,311.931244 221.431259,312.144653 228.517838,312.010498 
	C232.832703,311.928772 234.994095,309.375916 235.745544,305.763214 
	C236.627884,301.521149 236.204895,296.872772 231.868210,294.841400 
	C228.532684,293.278961 224.241043,291.993958 221.094650,297.084412 
M276.935822,307.329803 
	C275.622101,303.756470 274.480377,300.104828 272.906708,296.649933 
	C272.310669,295.341278 270.746429,293.691254 269.572754,293.650208 
	C268.421570,293.609985 266.692047,295.184296 266.116241,296.457123 
	C264.484070,300.064880 263.177704,303.840637 262.041168,307.639435 
	C261.700836,308.777008 262.340942,310.207916 262.531830,311.504456 
	C263.636536,311.002289 265.085266,310.786316 265.783905,309.946381 
	C268.257172,306.973022 270.325195,307.624084 272.811249,309.961853 
	C274.001434,311.081055 275.813293,311.539154 278.526489,312.882233 
	C277.751129,310.175415 277.443451,309.101257 276.935822,307.329803 
M348.666748,310.399902 
	C350.088623,310.431305 352.185272,311.078186 352.815369,310.387390 
	C355.523895,307.417755 357.721039,306.712555 360.423187,310.352112 
	C360.991974,311.118256 362.668152,311.062195 363.834045,311.385010 
	C364.094116,310.333221 364.815491,309.134247 364.534943,308.254944 
	C363.276978,304.312286 361.900085,300.385101 360.190125,296.623199 
	C359.692535,295.528503 357.860535,294.268921 356.800079,294.398010 
	C355.492950,294.557159 353.770569,295.841003 353.246979,297.072266 
	C351.500183,301.180084 350.208923,305.481567 348.666748,310.399902 
M432.045135,294.090912 
	C431.050903,294.074890 429.909424,293.734833 429.091461,294.106628 
	C427.042419,295.037933 424.153259,295.842529 423.392487,297.513489 
	C421.986267,300.602173 423.872192,303.086975 427.008240,304.604614 
	C428.253998,305.207458 429.146606,306.540009 430.200012,307.540344 
	C428.875977,307.790710 427.539368,307.989655 426.232239,308.309143 
	C425.332825,308.528992 424.308075,308.733063 423.672211,309.310638 
	C423.382660,309.573608 423.758270,311.302185 424.070190,311.377258 
	C426.407623,311.939972 429.077362,313.080322 431.103851,312.409912 
	C433.018433,311.776489 435.159332,309.331451 435.545380,307.359253 
	C435.856781,305.768372 433.907410,303.526031 432.570221,301.892670 
	C431.634216,300.749268 430.039459,300.145142 427.692474,298.620270 
	C430.852539,298.316711 432.693939,298.139832 435.667419,297.854187 
	C434.360291,296.167542 433.597687,295.183533 432.045135,294.090912 
M279.275970,211.870377 
	C279.095703,212.674362 278.612915,213.553482 278.790527,214.268585 
	C279.378693,216.636795 279.536224,219.821854 281.125183,221.034866 
	C282.761505,222.283997 286.356537,222.480713 288.217285,221.490128 
	C290.022278,220.529190 291.364410,217.566025 291.678833,215.310577 
	C291.913605,213.626602 290.327911,210.202576 289.311554,210.106476 
	C286.142151,209.806870 282.858063,210.720520 279.275970,211.870377 
M466.006897,294.144104 
	C461.136047,295.788422 458.257202,300.782074 459.343353,305.702545 
	C460.342438,310.228516 464.731964,313.552399 469.280731,312.732880 
	C470.937653,312.434357 472.373932,310.911407 473.910889,309.947083 
	C466.012329,308.610107 463.731079,307.151245 464.139648,302.783325 
	C464.709076,296.696381 469.333862,298.172729 473.820923,298.522736 
	C473.555328,292.996246 469.675507,294.334564 466.006897,294.144104 
M254.037811,308.303711 
	C251.006851,307.125000 249.358688,304.976044 250.189270,301.712494 
	C251.507385,296.533173 255.985184,298.752380 259.218170,298.350891 
	C259.562286,294.172516 259.490234,294.102753 255.024109,294.041779 
	C247.946793,293.945251 245.695389,296.561249 246.060150,304.457520 
	C246.330109,310.301727 250.239182,313.667847 255.943436,312.853668 
	C258.672302,312.464172 260.550537,311.334808 259.394653,308.056244 
	C257.612854,308.255890 256.156860,308.419037 254.037811,308.303711 
M208.024780,311.705139 
	C211.127518,311.705139 214.230270,311.705139 217.333008,311.705139 
	C217.365601,311.175079 217.398178,310.644989 217.430756,310.114929 
	C215.112030,309.286011 212.793289,308.457092 210.474548,307.628174 
	C211.929764,305.784546 213.384979,303.940918 214.995392,301.900696 
	C213.779602,301.361572 212.128693,300.629486 210.477783,299.897430 
	C212.132553,298.446960 213.869843,298.401855 215.358292,297.770294 
	C216.218857,297.405151 216.678268,296.094513 217.318237,295.209412 
	C214.957138,294.823944 212.587433,294.115326 210.238281,294.178040 
	C208.896561,294.213837 206.451401,295.501282 206.448242,296.233612 
	C206.426514,301.266510 206.918793,306.301605 208.024780,311.705139 
M444.257782,294.047424 
	C441.590820,294.341736 438.923889,294.636078 436.256927,294.930389 
	C435.983093,295.477173 435.709229,296.023956 435.435394,296.570709 
	C445.192169,299.019104 438.878235,306.918243 442.507294,313.079712 
	C443.890289,310.924988 445.563354,309.432709 445.792480,307.744446 
	C446.388062,303.356140 444.580688,298.292419 451.101257,295.953491 
	C450.769653,295.586761 450.438049,295.220032 450.106445,294.853302 
	C448.446228,294.584900 446.786011,294.316498 444.257782,294.047424 
M291.701996,309.569092 
	C289.688751,308.820099 287.675476,308.071106 285.386597,307.219543 
	C283.334076,303.607147 287.389893,297.918121 281.482544,293.508606 
	C281.482544,300.273224 281.482544,305.757202 281.482544,312.645721 
	C284.992462,311.836578 288.365417,311.059021 291.701996,309.569092 
M239.764740,294.940948 
	C239.552597,299.689270 239.226501,304.438416 239.262314,309.184875 
	C239.267181,309.829437 241.547974,311.229340 241.983368,310.966797 
	C244.069321,309.708984 242.580475,296.100830 239.764740,294.940948 
M344.982971,296.963928 
	C344.516754,296.174011 344.050568,295.384125 343.296173,294.105957 
	C340.671204,302.017059 341.737427,310.469360 346.130737,312.131012 
	C345.743683,307.054962 345.389679,302.411987 344.982971,296.963928 
z"/>
<path fill="#FB5565" opacity="1.000000" stroke="none" 
	d="
M73.888794,273.041412 
	C70.071419,269.060608 63.176384,270.174713 62.012718,275.263611 
	C60.062618,283.791687 57.162327,292.467316 57.307858,301.035919 
	C57.639336,320.553558 62.443436,339.070709 75.163353,354.708435 
	C75.663673,355.323517 75.960487,356.111786 76.309555,356.839752 
	C76.557671,357.357178 76.734100,357.908966 77.308578,359.387573 
	C62.872620,347.209564 55.012070,332.383453 51.004227,315.251404 
	C47.516056,300.340729 48.465153,285.560974 53.143551,271.167297 
	C56.478683,260.906342 61.893871,251.563950 69.124649,243.421616 
	C77.069885,234.474777 86.099197,226.582001 97.028374,221.832504 
	C104.811249,218.450333 113.409233,216.136337 121.846664,215.223068 
	C144.842880,212.733994 164.899216,219.958191 182.666016,234.885391 
	C190.337311,241.330612 199.318848,246.283020 207.995972,251.422592 
	C210.505508,252.909042 214.024597,252.691132 217.836761,253.457672 
	C222.077164,253.146103 225.561676,252.631409 229.046188,252.116714 
	C231.094803,251.533722 233.143402,250.950729 235.553619,250.616394 
	C235.254333,252.564178 234.593475,254.263290 233.932617,255.962402 
	C232.214035,256.300873 230.495468,256.639343 227.983185,257.022705 
	C224.115234,257.418182 221.041000,257.768799 217.966782,258.119446 
	C205.244431,257.718475 195.486862,250.832932 185.985046,243.437988 
	C175.928680,235.611481 165.496262,228.377777 152.856354,225.470062 
	C139.830627,222.473572 126.908745,223.627472 114.191757,227.301743 
	C114.191757,229.954514 114.191757,232.233398 114.191757,234.993378 
	C127.768082,234.993378 141.163437,234.993378 154.774170,234.993378 
	C154.774170,247.070328 154.774170,258.666565 154.774170,270.766724 
	C141.415024,270.766724 128.029251,270.766724 113.996323,270.766724 
	C113.996323,277.175415 113.996719,283.101685 113.996216,289.027954 
	C113.995583,296.519958 113.851936,304.015869 114.055336,311.502319 
	C114.151848,315.054626 112.816719,316.175293 109.383568,316.058319 
	C103.230408,315.848694 97.065437,315.985809 90.073456,315.732513 
	C86.450211,315.323029 83.634789,314.849426 80.873032,315.064606 
	C76.235390,315.425873 74.819565,313.478424 74.926880,309.009277 
	C75.168930,298.928833 75.058609,288.837982 74.950989,278.752869 
	C74.930634,276.845490 74.259590,274.945038 73.888794,273.041412 
z"/>
<path fill="#F75767" opacity="1.000000" stroke="none" 
	d="
M79.138138,204.929474 
	C75.093910,197.281387 73.318390,189.664154 77.277657,181.170273 
	C83.449593,167.929504 99.688499,163.482147 111.904846,171.619843 
	C115.282860,173.870026 117.165924,173.627640 120.349068,171.337219 
	C131.477646,163.329758 144.028214,158.504211 157.680389,157.087753 
	C165.221680,156.305328 172.898468,155.621094 180.426880,156.145538 
	C204.375351,157.813843 226.960831,163.506348 244.211243,181.826202 
	C251.662903,189.739838 256.006775,199.147903 257.141632,210.242493 
	C258.142059,220.023178 255.899017,228.587708 249.592133,236.453522 
	C250.467484,230.457825 251.338425,224.461487 252.219101,218.466568 
	C253.873840,207.202423 249.597519,197.636566 243.058350,189.070770 
	C230.119461,172.121857 211.738846,165.102310 191.456039,161.978058 
	C170.568253,158.760620 150.207153,159.970551 131.107941,170.029800 
	C126.957550,172.215759 123.149773,175.052200 119.298035,177.516235 
	C123.843109,189.281326 123.684189,201.451294 114.606537,208.749939 
	C106.183037,215.522598 97.044998,217.436371 84.772293,210.016418 
	C84.113174,209.435471 83.837692,209.232483 83.312660,208.788696 
	C81.720367,207.335861 80.377632,206.123825 79.055679,204.945541 
	C79.076454,204.979309 79.138138,204.929474 79.138138,204.929474 
M87.985802,205.017960 
	C87.985802,205.017960 87.922577,205.045868 88.201736,205.724808 
	C95.686729,210.703400 104.024727,210.426117 110.778435,204.929962 
	C110.778435,204.929962 111.008507,204.570572 111.520241,204.042816 
	C111.696983,203.344269 111.873726,202.645706 111.954956,201.960312 
	C111.954956,201.960312 111.962509,202.056427 112.719955,201.972519 
	C116.867584,198.610168 118.688072,190.496582 116.040161,185.309540 
	C114.824242,182.927628 112.711205,181.003677 111.004639,178.995087 
	C111.004639,178.995087 111.127670,178.994797 111.686592,178.383423 
	C107.993736,176.587067 104.430092,173.795517 100.569092,173.294220 
	C97.190369,172.855545 93.477394,174.991241 90.002426,176.000992 
	C90.002426,176.000992 90.013939,175.910675 89.294472,175.989944 
	C88.345085,176.665985 87.395706,177.342026 86.094452,178.222778 
	C85.737938,178.628510 85.381424,179.034241 84.531670,179.966980 
	C83.988762,180.977249 83.445862,181.987503 82.984222,182.988113 
	C82.984222,182.988113 82.972725,182.907074 82.294800,183.254623 
	C78.039497,191.363281 81.394981,199.771652 85.976395,203.016388 
	C85.976395,203.016388 85.915825,203.082001 85.903275,203.778625 
	C86.593231,204.214386 87.283188,204.650146 87.985802,205.017960 
z"/>
<path fill="#1F1B1B" opacity="1.000000" stroke="none" 
	d="
M343.575989,258.102051 
	C344.878357,259.700073 346.812653,261.548798 346.637268,263.169098 
	C346.384125,265.507477 345.161987,268.918030 343.380157,269.726624 
	C329.788818,275.894470 304.555695,274.611694 299.941437,251.756454 
	C297.473724,239.533478 299.329346,227.661804 309.019318,218.826981 
	C313.560272,214.686768 319.434601,211.836182 326.220703,212.460968 
	C329.345642,212.748657 332.534058,212.421295 335.643066,212.794403 
	C345.253052,213.947617 347.372650,213.489059 345.138702,227.353195 
	C342.763458,226.478699 340.450317,225.765625 338.253479,224.790604 
	C333.016815,222.466431 319.912750,223.949631 315.673553,229.575775 
	C311.442871,235.190674 309.339172,246.040771 313.413239,252.134003 
	C317.622009,258.428772 321.112946,262.445648 331.238373,261.077698 
	C335.300537,260.528870 339.259399,259.215881 343.575989,258.102051 
z"/>
<path fill="#1F1A1A" opacity="1.000000" stroke="none" 
	d="
M234.240189,256.209167 
	C234.593475,254.263290 235.254333,252.564178 235.882385,250.479935 
	C235.917221,239.606506 235.970169,229.118057 236.059143,218.629929 
	C236.100082,213.804947 239.972931,210.795746 244.566650,212.414764 
	C245.591537,212.775986 246.413071,215.133041 246.466125,216.602341 
	C246.807617,226.056335 246.904877,235.519104 247.115417,244.978241 
	C247.120758,245.218048 247.506378,245.449402 248.128922,246.152679 
	C251.582779,241.430008 254.895905,236.773636 258.342743,232.218430 
	C262.683441,226.481995 266.751190,225.449936 274.653381,228.154556 
	C270.673767,233.353790 267.105804,238.733170 262.786865,243.420609 
	C259.586182,246.894333 259.813904,249.664734 262.340973,253.057404 
	C265.811401,257.716492 269.187958,262.445953 272.566101,267.172913 
	C273.307434,268.210266 273.886322,269.363678 274.562805,270.502014 
	C267.809296,273.576233 262.810669,272.471161 258.688812,267.151581 
	C255.343643,262.834381 252.075439,258.457520 248.433746,253.774704 
	C247.878860,253.115067 247.663330,252.787857 247.447784,252.460632 
	C247.599670,252.996262 247.751556,253.531891 247.903442,254.067520 
	C247.799683,258.713806 247.706924,263.360352 247.588882,268.006287 
	C247.480042,272.290833 244.316193,271.860931 241.484726,271.928528 
	C238.693024,271.995178 236.166183,272.043213 235.997223,268.024872 
	C235.834488,264.155060 235.055817,260.311188 234.240189,256.209167 
z"/>
<path fill="#1F1B1B" opacity="1.000000" stroke="none" 
	d="
M388.324310,253.122437 
	C388.460327,258.121277 388.635101,262.735229 388.638458,267.349304 
	C388.641479,271.531464 382.967682,273.814453 379.048981,270.639099 
	C376.854584,268.860992 375.690613,269.553833 373.994873,270.444855 
	C368.944397,273.098602 363.585358,273.729401 358.788452,270.637970 
	C356.144165,268.933807 353.424652,265.860443 352.709656,262.924469 
	C350.478333,253.761597 356.590942,246.710114 366.071442,246.574417 
	C367.891327,246.548355 369.846954,247.091507 371.500305,246.586868 
	C373.597168,245.946884 377.012085,244.620667 377.103516,243.386276 
	C377.344147,240.137955 375.527191,237.005264 371.535614,237.186859 
	C367.779694,237.357742 363.956818,237.880325 360.350220,238.905411 
	C357.695923,239.659836 355.315369,239.896362 354.771667,237.028732 
	C354.390625,235.018738 355.018585,231.496002 356.390991,230.694122 
	C364.056061,226.215439 372.261475,225.508072 380.687378,228.893600 
	C385.891022,230.984421 387.656738,235.134552 387.899445,240.264297 
	C388.096008,244.418900 388.163574,248.579590 388.324310,253.122437 
M372.719940,262.496063 
	C377.182709,261.936951 378.022827,258.101227 377.520416,255.158417 
	C376.839783,251.171478 373.310913,253.888733 370.990997,253.844894 
	C367.151398,253.772339 363.374786,254.897430 363.700226,259.248444 
	C364.083160,264.367981 368.645477,262.754425 372.719940,262.496063 
z"/>
<path fill="#1E1A1A" opacity="1.000000" stroke="none" 
	d="
M437.932648,253.948196 
	C439.562592,260.415802 445.645752,263.435608 453.765686,261.782227 
	C454.574921,261.617462 455.397888,261.005524 456.138428,261.115082 
	C458.310608,261.436523 461.711273,261.378601 462.339355,262.624481 
	C463.817566,265.556549 463.206360,268.732910 459.355225,270.300629 
	C450.637909,273.849304 441.965088,274.071167 434.234131,268.448456 
	C425.409668,262.030487 424.631500,252.508591 426.763275,242.776093 
	C430.311646,226.576355 442.246002,224.496475 455.081299,228.521606 
	C462.594421,230.877701 463.816772,238.643524 464.918152,245.609695 
	C465.149384,247.072189 464.987885,248.596756 464.558411,250.539612 
	C456.507050,250.993088 448.903351,250.928391 441.303223,251.063461 
	C439.684296,251.092239 436.650513,250.212540 437.932648,253.948196 
M450.878906,244.921112 
	C451.680481,243.860535 453.388062,242.294418 453.127136,241.826736 
	C451.988892,239.786865 450.622864,237.178436 448.697632,236.431854 
	C445.594574,235.228485 441.990845,235.576218 439.813721,238.909592 
	C439.067169,240.052628 438.212860,241.775574 438.584351,242.811829 
	C438.940857,243.806412 440.768646,244.698822 442.043335,244.850342 
	C444.671295,245.162674 447.361481,244.951385 450.878906,244.921112 
z"/>
<path fill="#744DAE" opacity="1.000000" stroke="none" 
	d="
M30.930704,234.869339 
	C44.628895,234.869339 58.327087,234.869339 72.858543,234.869339 
	C69.056366,239.680939 65.328835,243.572632 62.587036,248.065811 
	C58.705563,254.426727 55.302399,261.118195 52.215992,267.905396 
	C51.074230,270.416199 50.348026,271.403076 47.376949,271.136841 
	C42.263409,270.678528 37.081665,270.981171 31.465012,270.446899 
	C30.977886,258.242676 30.954296,246.556015 30.930704,234.869339 
z"/>
<path fill="#6D479F" opacity="1.000000" stroke="none" 
	d="
M321.039246,280.224792 
	C356.322998,280.166809 391.606720,280.101105 426.890442,280.054413 
	C442.680847,280.033508 458.471313,280.050873 474.728760,280.050873 
	C474.825653,282.017151 474.910126,283.730957 475.019165,285.943634 
	C423.760223,285.943634 372.869507,285.943634 321.493225,285.475647 
	C321.018158,283.413391 321.028717,281.819092 321.039246,280.224792 
z"/>
<path fill="#F75262" opacity="1.000000" stroke="none" 
	d="
M320.572845,280.142395 
	C321.028717,281.819092 321.018158,283.413391 321.032928,285.405457 
	C285.273499,285.861633 249.488754,285.922791 213.703995,285.976379 
	C205.214584,285.989105 196.725052,285.993866 188.235764,285.959534 
	C186.677856,285.953186 185.120789,285.740509 183.382187,285.609375 
	C183.756958,283.401611 184.017288,281.868011 184.324203,280.059998 
	C229.587189,280.059998 274.846802,280.059998 320.572845,280.142395 
z"/>
<path fill="#211B1B" opacity="1.000000" stroke="none" 
	d="
M229.012070,251.695831 
	C225.561676,252.631409 222.077164,253.146103 218.269562,253.428284 
	C214.908905,251.038620 212.131836,248.275131 208.785217,246.837265 
	C198.486465,242.412445 195.271393,237.987564 195.580978,227.157288 
	C195.746613,221.363602 201.068054,214.350845 207.626221,213.556244 
	C213.573227,212.835663 219.848083,213.543640 225.807388,214.592957 
	C230.868164,215.484070 229.114624,220.159546 228.534836,223.241043 
	C227.910751,226.558105 225.082596,225.358871 222.828979,224.716827 
	C218.679230,223.534576 214.552979,222.195679 210.305054,224.539581 
	C206.595474,226.586502 205.839188,229.937561 209.204773,232.446396 
	C212.487259,234.893265 216.258194,236.790039 220.021988,238.461517 
	C225.699280,240.982758 229.384064,244.628784 229.012070,251.695831 
z"/>
<path fill="#1E1A1A" opacity="1.000000" stroke="none" 
	d="
M399.071716,248.999863 
	C399.075043,243.175507 398.839264,237.834442 399.208466,232.535507 
	C399.339691,230.652298 400.779175,227.443100 401.902100,227.315872 
	C405.078491,226.955963 409.584442,225.058136 410.424957,230.282242 
	C413.605377,229.430756 416.677704,228.628311 419.737976,227.782394 
	C422.108887,227.127029 424.667480,227.276657 424.524994,230.157349 
	C424.396454,232.756058 422.945190,235.378754 421.672760,237.776184 
	C421.297943,238.482468 419.550446,238.472305 418.425751,238.766464 
	C411.998749,240.447433 410.023987,242.955215 409.979248,249.649780 
	C409.940369,255.473038 409.841827,261.300079 410.005035,267.118866 
	C410.098999,270.468109 408.966064,272.022247 405.448425,271.964050 
	C402.168396,271.909790 399.244843,271.651367 399.164764,267.467438 
	C399.050171,261.479828 399.094574,255.489136 399.071716,248.999863 
z"/>
<path fill="#1F1A1A" opacity="1.000000" stroke="none" 
	d="
M217.783020,258.410889 
	C221.041000,257.768799 224.115234,257.418182 227.608246,257.103149 
	C229.530472,262.588593 228.250885,266.547607 222.664917,269.486328 
	C214.438721,273.813995 205.798798,273.937073 197.428558,269.574646 
	C194.094772,267.837097 194.063980,262.500916 197.045547,257.748047 
	C203.821960,259.673828 210.429062,265.236938 217.783020,258.410889 
z"/>
<path fill="#211B1B" opacity="1.000000" stroke="none" 
	d="
M280.954407,228.970337 
	C288.631683,226.735596 290.017151,227.675903 290.027679,235.175232 
	C290.043579,246.489288 290.043823,257.803375 289.586609,269.572449 
	C286.415161,270.019104 283.707825,270.010742 281.000519,270.002380 
	C281.000519,270.002411 281.000000,270.000000 280.998840,269.531342 
	C280.983246,255.698563 280.968811,242.334457 280.954407,228.970337 
z"/>
<path fill="#744DAE" opacity="1.000000" stroke="none" 
	d="
M83.562210,209.029480 
	C83.837692,209.232483 84.113174,209.435471 84.422836,209.753723 
	C85.210449,211.000870 85.713524,212.706161 86.761406,213.163681 
	C90.911583,214.975739 95.232285,216.397232 99.268661,217.882172 
	C91.538460,222.676865 83.275833,227.801788 74.699219,233.121460 
	C74.699219,223.353622 74.699219,213.103043 74.699219,202.250168 
	C76.272278,203.564804 77.514381,204.602844 78.947311,205.285187 
	C79.138138,204.929474 79.076454,204.979309 78.776344,205.305695 
	C79.505875,207.761078 80.249992,210.317520 83.562210,209.029480 
z"/>
<path fill="#1C1717" opacity="1.000000" stroke="none" 
	d="
M306.549713,312.804077 
	C299.148712,311.823669 297.870392,309.697083 300.338684,303.296539 
	C300.740784,302.253906 300.726593,301.049683 301.135651,300.011047 
	C301.909271,298.046692 302.447693,294.971436 303.817871,294.502502 
	C305.799500,293.824219 309.132019,294.335114 310.551453,295.714386 
	C311.543579,296.678406 310.302734,299.943634 310.053192,302.180389 
	C309.970459,302.921997 309.868988,303.661530 309.694580,305.051727 
	C311.422424,304.376709 312.620087,303.908813 314.239960,303.275970 
	C314.558014,306.375183 314.843414,309.156433 315.132355,311.972137 
	C312.529510,312.218384 309.725891,312.483612 306.549713,312.804077 
z"/>
<path fill="#1C1717" opacity="1.000000" stroke="none" 
	d="
M198.337311,310.286224 
	C198.055542,307.832855 197.908676,305.739929 197.700714,302.776276 
	C195.970322,305.291473 194.730835,307.093140 193.021393,309.577881 
	C190.919403,306.830566 189.298798,304.712402 187.372574,302.194763 
	C187.057388,305.867310 186.789551,308.988190 186.446320,312.987427 
	C184.055344,309.617218 183.014725,296.570923 184.812500,295.080902 
	C185.720276,294.328552 188.292206,294.331360 189.180573,295.087128 
	C190.704361,296.383545 191.497879,298.538330 192.981552,300.958344 
	C194.288025,298.898560 195.011597,297.194672 196.236740,296.009155 
	C197.171539,295.104584 198.780228,294.392334 200.015015,294.494049 
	C200.737396,294.553558 201.806503,296.350006 201.868134,297.414398 
	C202.089188,301.233429 202.071533,305.079163 201.894562,308.903290 
	C201.794312,311.069153 200.885010,312.569733 198.337311,310.286224 
z"/>
<path fill="#1C1717" opacity="1.000000" stroke="none" 
	d="
M392.449463,305.864868 
	C389.463745,302.419312 390.110870,305.585602 389.993469,306.888580 
	C389.781372,309.242889 390.344666,312.090942 386.389465,311.598297 
	C385.995911,306.476593 385.550507,301.576294 385.315125,296.665924 
	C385.279144,295.915894 386.223480,294.462036 386.698334,294.468750 
	C388.071625,294.488159 389.823334,294.680969 390.725739,295.540955 
	C392.695587,297.418274 394.231995,299.750458 396.088135,302.075470 
	C397.063141,298.994873 397.916016,296.300049 398.768890,293.605255 
	C399.480957,293.768494 400.193024,293.931763 400.905090,294.095001 
	C400.905090,299.144287 400.998047,304.196991 400.814148,309.239563 
	C400.783264,310.086273 399.673157,311.376434 398.845856,311.578735 
	C397.976471,311.791290 396.584290,311.203552 395.889618,310.501434 
	C394.625854,309.224243 393.708984,307.603729 392.449463,305.864868 
z"/>
<path fill="#1E1A1A" opacity="1.000000" stroke="none" 
	d="
M417.178833,294.308777 
	C423.653137,300.451019 422.682556,310.502441 415.507782,312.100128 
	C412.627960,312.741455 407.774475,311.780701 406.319885,309.754211 
	C404.429321,307.120453 404.249939,302.579285 404.781281,299.078705 
	C405.304077,295.634216 408.428986,293.726532 412.315674,294.049316 
	C413.799011,294.172516 415.294098,294.154419 417.178833,294.308777 
M415.437012,306.698120 
	C415.796417,305.956512 416.597198,305.095642 416.434906,304.494995 
	C415.882355,302.449585 415.309326,300.246918 414.056183,298.641113 
	C413.612030,298.072052 410.108795,298.685242 409.881927,299.376068 
	C409.181885,301.507629 408.680359,304.208710 409.435425,306.176910 
	C410.246979,308.292206 412.596313,309.671539 415.437012,306.698120 
z"/>
<path fill="#1C1717" opacity="1.000000" stroke="none" 
	d="
M328.968506,312.235748 
	C324.440887,312.378052 322.335632,310.683960 322.987396,306.281311 
	C323.155396,305.146667 322.738190,303.894104 323.030518,302.815125 
	C323.876373,299.693024 320.370270,294.542542 327.036377,294.051208 
	C334.207520,293.522644 338.232819,295.806366 338.900848,300.882690 
	C339.765961,307.456543 337.480560,310.843231 331.333618,312.061890 
	C330.686340,312.190186 330.016266,312.203827 328.968506,312.235748 
M334.127991,301.373749 
	C332.591034,300.383759 331.054077,299.393799 329.517090,298.403839 
	C329.001740,300.177979 328.109222,301.946716 328.083649,303.727875 
	C328.060883,305.312775 328.998444,306.911438 329.512146,308.504028 
	C331.024628,307.434753 332.727478,306.543762 333.967712,305.219543 
	C334.570282,304.576202 334.307251,303.122131 334.127991,301.373749 
z"/>
<path fill="#1E1A1A" opacity="1.000000" stroke="none" 
	d="
M371.374329,305.283813 
	C371.749512,306.080170 371.904602,306.788635 372.251312,306.899841 
	C373.795197,307.395142 375.393921,307.719666 376.972809,308.105865 
	C376.566376,306.790192 376.159943,305.474548 375.456787,303.198395 
	C376.848022,302.936493 378.931030,301.884308 380.161377,302.509705 
	C381.257843,303.067017 382.000702,305.547363 381.828461,307.056824 
	C381.621887,308.867157 380.726196,311.387451 379.343353,312.122498 
	C375.660400,314.080200 371.846558,313.146118 368.887512,310.230286 
	C365.903870,307.290161 365.357971,303.720459 366.935394,299.738068 
	C368.443054,295.931763 370.822083,293.638153 375.152100,294.061401 
	C377.869171,294.327026 381.549438,293.106262 381.896545,297.348175 
	C378.174164,298.237305 374.948273,298.614014 372.145996,299.908081 
	C371.261749,300.316406 371.511658,303.180695 371.374329,305.283813 
z"/>
<path fill="#1C1717" opacity="1.000000" stroke="none" 
	d="
M221.154114,296.668396 
	C224.241043,291.993958 228.532684,293.278961 231.868210,294.841400 
	C236.204895,296.872772 236.627884,301.521149 235.745544,305.763214 
	C234.994095,309.375916 232.832703,311.928772 228.517838,312.010498 
	C221.431259,312.144653 221.060745,311.931244 221.041718,305.072174 
	C221.034332,302.409637 221.075562,299.747009 221.154114,296.668396 
M224.981705,304.287140 
	C225.262436,305.746216 225.543182,307.205292 225.987656,309.515289 
	C227.857498,308.035919 229.352234,307.440948 229.727142,306.430481 
	C230.437515,304.515839 230.880341,302.321625 230.661041,300.328644 
	C230.569885,299.500122 228.496490,298.889679 227.324478,298.180084 
	C226.542801,299.934265 225.761124,301.688446 224.981705,304.287140 
z"/>
<path fill="#1F1B1B" opacity="1.000000" stroke="none" 
	d="
M277.035828,307.678467 
	C277.443451,309.101257 277.751129,310.175415 278.526489,312.882233 
	C275.813293,311.539154 274.001434,311.081055 272.811249,309.961853 
	C270.325195,307.624084 268.257172,306.973022 265.783905,309.946381 
	C265.085266,310.786316 263.636536,311.002289 262.531830,311.504456 
	C262.340942,310.207916 261.700836,308.777008 262.041168,307.639435 
	C263.177704,303.840637 264.484070,300.064880 266.116241,296.457123 
	C266.692047,295.184296 268.421570,293.609985 269.572754,293.650208 
	C270.746429,293.691254 272.310669,295.341278 272.906708,296.649933 
	C274.480377,300.104828 275.622101,303.756470 277.035828,307.678467 
z"/>
<path fill="#1E1A1A" opacity="1.000000" stroke="none" 
	d="
M348.704926,310.054382 
	C350.208923,305.481567 351.500183,301.180084 353.246979,297.072266 
	C353.770569,295.841003 355.492950,294.557159 356.800079,294.398010 
	C357.860535,294.268921 359.692535,295.528503 360.190125,296.623199 
	C361.900085,300.385101 363.276978,304.312286 364.534943,308.254944 
	C364.815491,309.134247 364.094116,310.333221 363.834045,311.385010 
	C362.668152,311.062195 360.991974,311.118256 360.423187,310.352112 
	C357.721039,306.712555 355.523895,307.417755 352.815369,310.387390 
	C352.185272,311.078186 350.088623,310.431305 348.704926,310.054382 
z"/>
<path fill="#1C1717" opacity="1.000000" stroke="none" 
	d="
M432.440125,294.145203 
	C433.597687,295.183533 434.360291,296.167542 435.667419,297.854187 
	C432.693939,298.139832 430.852539,298.316711 427.692474,298.620270 
	C430.039459,300.145142 431.634216,300.749268 432.570221,301.892670 
	C433.907410,303.526031 435.856781,305.768372 435.545380,307.359253 
	C435.159332,309.331451 433.018433,311.776489 431.103851,312.409912 
	C429.077362,313.080322 426.407623,311.939972 424.070190,311.377258 
	C423.758270,311.302185 423.382660,309.573608 423.672211,309.310638 
	C424.308075,308.733063 425.332825,308.528992 426.232239,308.309143 
	C427.539368,307.989655 428.875977,307.790710 430.200012,307.540344 
	C429.146606,306.540009 428.253998,305.207458 427.008240,304.604614 
	C423.872192,303.086975 421.986267,300.602173 423.392487,297.513489 
	C424.153259,295.842529 427.042419,295.037933 429.091461,294.106628 
	C429.909424,293.734833 431.050903,294.074890 432.440125,294.145203 
z"/>
<path fill="#1F1A1A" opacity="1.000000" stroke="none" 
	d="
M279.447205,211.517059 
	C282.858063,210.720520 286.142151,209.806870 289.311554,210.106476 
	C290.327911,210.202576 291.913605,213.626602 291.678833,215.310577 
	C291.364410,217.566025 290.022278,220.529190 288.217285,221.490128 
	C286.356537,222.480713 282.761505,222.283997 281.125183,221.034866 
	C279.536224,219.821854 279.378693,216.636795 278.790527,214.268585 
	C278.612915,213.553482 279.095703,212.674362 279.447205,211.517059 
z"/>
<path fill="#1C1717" opacity="1.000000" stroke="none" 
	d="
M466.424866,294.111206 
	C469.675507,294.334564 473.555328,292.996246 473.820923,298.522736 
	C469.333862,298.172729 464.709076,296.696381 464.139648,302.783325 
	C463.731079,307.151245 466.012329,308.610107 473.910889,309.947083 
	C472.373932,310.911407 470.937653,312.434357 469.280731,312.732880 
	C464.731964,313.552399 460.342438,310.228516 459.343353,305.702545 
	C458.257202,300.782074 461.136047,295.788422 466.424866,294.111206 
z"/>
<path fill="#1C1717" opacity="1.000000" stroke="none" 
	d="
M254.369324,308.442932 
	C256.156860,308.419037 257.612854,308.255890 259.394653,308.056244 
	C260.550537,311.334808 258.672302,312.464172 255.943436,312.853668 
	C250.239182,313.667847 246.330109,310.301727 246.060150,304.457520 
	C245.695389,296.561249 247.946793,293.945251 255.024109,294.041779 
	C259.490234,294.102753 259.562286,294.172516 259.218170,298.350891 
	C255.985184,298.752380 251.507385,296.533173 250.189270,301.712494 
	C249.358688,304.976044 251.006851,307.125000 254.369324,308.442932 
z"/>
<path fill="#1C1717" opacity="1.000000" stroke="none" 
	d="
M207.635223,311.520569 
	C206.918793,306.301605 206.426514,301.266510 206.448242,296.233612 
	C206.451401,295.501282 208.896561,294.213837 210.238281,294.178040 
	C212.587433,294.115326 214.957138,294.823944 217.318237,295.209412 
	C216.678268,296.094513 216.218857,297.405151 215.358292,297.770294 
	C213.869843,298.401855 212.132553,298.446960 210.477783,299.897430 
	C212.128693,300.629486 213.779602,301.361572 214.995392,301.900696 
	C213.384979,303.940918 211.929764,305.784546 210.474548,307.628174 
	C212.793289,308.457092 215.112030,309.286011 217.430756,310.114929 
	C217.398178,310.644989 217.365601,311.175079 217.333008,311.705139 
	C214.230270,311.705139 211.127518,311.705139 207.635223,311.520569 
z"/>
<path fill="#1C1717" opacity="1.000000" stroke="none" 
	d="
M444.691772,294.047791 
	C446.786011,294.316498 448.446228,294.584900 450.106445,294.853302 
	C450.438049,295.220032 450.769653,295.586761 451.101257,295.953491 
	C444.580688,298.292419 446.388062,303.356140 445.792480,307.744446 
	C445.563354,309.432709 443.890289,310.924988 442.507294,313.079712 
	C438.878235,306.918243 445.192169,299.019104 435.435394,296.570709 
	C435.709229,296.023956 435.983093,295.477173 436.256927,294.930389 
	C438.923889,294.636078 441.590820,294.341736 444.691772,294.047791 
z"/>
<path fill="#1C1717" opacity="1.000000" stroke="none" 
	d="
M291.720184,309.925262 
	C288.365417,311.059021 284.992462,311.836578 281.482544,312.645721 
	C281.482544,305.757202 281.482544,300.273224 281.482544,293.508606 
	C287.389893,297.918121 283.334076,303.607147 285.386597,307.219543 
	C287.675476,308.071106 289.688751,308.820099 291.720184,309.925262 
z"/>
<path fill="#1C1717" opacity="1.000000" stroke="none" 
	d="
M240.055603,294.732056 
	C242.580475,296.100830 244.069321,309.708984 241.983368,310.966797 
	C241.547974,311.229340 239.267181,309.829437 239.262314,309.184875 
	C239.226501,304.438416 239.552597,299.689270 240.055603,294.732056 
z"/>
<path fill="#1C1717" opacity="1.000000" stroke="none" 
	d="
M345.009308,297.366455 
	C345.389679,302.411987 345.743683,307.054962 346.130737,312.131012 
	C341.737427,310.469360 340.671204,302.017059 343.296173,294.105957 
	C344.050568,295.384125 344.516754,296.174011 345.009308,297.366455 
z"/>
<path fill="#F75767" opacity="1.000000" stroke="none" 
	d="
M73.935280,273.505066 
	C74.259590,274.945038 74.930634,276.845490 74.950989,278.752869 
	C75.058609,288.837982 75.168930,298.928833 74.926880,309.009277 
	C74.819565,313.478424 76.235390,315.425873 80.873032,315.064606 
	C83.634789,314.849426 86.450211,315.323029 89.607124,315.667175 
	C84.840942,315.847382 79.709152,315.847382 73.981766,315.847382 
	C73.981766,301.812653 73.981766,287.890717 73.935280,273.505066 
z"/>
<path fill="#211B1B" opacity="1.000000" stroke="none" 
	d="
M280.290527,270.111938 
	C279.829193,269.940582 278.962524,269.765106 278.964203,269.598419 
	C279.099365,256.253357 279.302399,242.909012 279.793732,229.730621 
	C280.154938,243.301743 280.222748,256.706848 280.290527,270.111938 
z"/>
<path fill="#0C0B0B" opacity="1.000000" stroke="none" 
	d="
M280.466766,270.080688 
	C280.222748,256.706848 280.154938,243.301743 280.086914,229.422516 
	C280.086639,228.948395 280.520905,228.962646 280.737671,228.966492 
	C280.968811,242.334457 280.983246,255.698563 280.997620,269.531342 
	C280.997559,270.000000 280.643005,270.049469 280.466766,270.080688 
z"/>
<path fill="#7850B2" opacity="1.000000" stroke="none" 
	d="
M30.588562,235.139359 
	C30.954296,246.556015 30.977886,258.242676 31.000362,270.388123 
	C30.670889,270.370148 30.055281,269.892822 30.056257,269.416748 
	C30.079525,258.080872 30.169004,246.745132 30.588562,235.139359 
z"/>
<path fill="#1E1A1A" opacity="1.000000" stroke="none" 
	d="
M453.053467,294.031311 
	C453.468018,294.040497 453.882538,294.049713 454.630646,294.518860 
	C454.994415,300.327820 455.024628,305.676849 455.054810,311.025848 
	C454.356140,308.829010 453.365906,306.674713 453.037415,304.423859 
	C452.680084,301.975342 452.937317,299.437073 452.949707,296.143738 
	C452.999725,294.910126 453.026611,294.470734 453.053467,294.031311 
z"/>
<path fill="#0C0B0B" opacity="1.000000" stroke="none" 
	d="
M455.386108,310.833069 
	C455.024628,305.676849 454.994415,300.327820 454.941620,294.517212 
	C458.578766,299.420502 457.455872,305.015564 455.386108,310.833069 
z"/>
<path fill="#211B1B" opacity="1.000000" stroke="none" 
	d="
M438.128784,253.614944 
	C436.650513,250.212540 439.684296,251.092239 441.303223,251.063461 
	C448.903351,250.928391 456.507050,250.993088 464.583893,250.982544 
	C458.685852,251.350174 452.308197,251.652786 445.943420,252.127228 
	C443.389404,252.317612 440.863556,252.885590 438.128784,253.614944 
z"/>
<path fill="#0C0B0B" opacity="1.000000" stroke="none" 
	d="
M281.172729,270.332092 
	C283.707825,270.010742 286.415161,270.019104 289.574768,270.044922 
	C287.318359,272.947205 284.393768,272.704437 281.172729,270.332092 
z"/>
<path fill="#0C0B0B" opacity="1.000000" stroke="none" 
	d="
M452.895874,294.195465 
	C453.026611,294.470734 452.999725,294.910126 452.945038,295.678467 
	C452.857574,295.458130 452.797913,294.908875 452.895874,294.195465 
z"/>
<path fill="#7850B2" opacity="1.000000" stroke="none" 
	d="
M85.024918,179.439972 
	C85.381424,179.034241 85.737938,178.628510 86.596497,178.485535 
	C88.070335,177.802399 89.042137,176.856537 90.013931,175.910675 
	C90.013939,175.910675 90.002426,176.000992 90.322266,176.275146 
	C93.202080,176.032990 95.892250,174.755463 98.293671,175.166199 
	C102.662163,175.913361 106.859131,177.663300 111.127670,178.994797 
	C111.127670,178.994797 111.004639,178.995087 111.025932,179.309296 
	C116.369583,186.896423 116.249718,194.391418 111.962509,202.056427 
	C111.962509,202.056427 111.954956,201.960312 111.583527,202.175018 
	C111.144234,203.116669 111.076370,203.843613 111.008514,204.570572 
	C111.008507,204.570572 110.778435,204.929962 110.392830,204.581024 
	C104.903938,206.728683 99.764381,208.959045 93.893021,206.930038 
	C91.921310,206.248642 89.913750,205.670944 87.922577,205.045868 
	C87.922577,205.045868 87.985802,205.017960 88.252823,204.684357 
	C87.651833,203.927841 86.783829,203.504929 85.915825,203.082001 
	C85.915825,203.082001 85.976395,203.016388 86.306320,202.813736 
	C81.600830,196.752258 82.316147,189.824203 82.972725,182.907074 
	C82.972725,182.907074 82.984222,182.988113 83.394821,183.143646 
	C84.211914,182.012772 84.618416,180.726379 85.024918,179.439972 
z"/>
<path fill="#000000" opacity="1.000000" stroke="none" 
	d="
M112.341232,202.014465 
	C116.249718,194.391418 116.369583,186.896423 111.026108,179.247772 
	C112.711205,181.003677 114.824242,182.927628 116.040161,185.309540 
	C118.688072,190.496582 116.867584,198.610168 112.341232,202.014465 
z"/>
<path fill="#000000" opacity="1.000000" stroke="none" 
	d="
M111.407135,178.689117 
	C106.859131,177.663300 102.662163,175.913361 98.293671,175.166199 
	C95.892250,174.755463 93.202080,176.032990 90.277092,176.269501 
	C93.477394,174.991241 97.190369,172.855545 100.569092,173.294220 
	C104.430092,173.795517 107.993736,176.587067 111.407135,178.689117 
z"/>
<path fill="#000000" opacity="1.000000" stroke="none" 
	d="
M82.633759,183.080841 
	C82.316147,189.824203 81.600830,196.752258 86.267654,202.836166 
	C81.394981,199.771652 78.039497,191.363281 82.633759,183.080841 
z"/>
<path fill="#000000" opacity="1.000000" stroke="none" 
	d="
M88.062157,205.385345 
	C89.913750,205.670944 91.921310,206.248642 93.893021,206.930038 
	C99.764381,208.959045 104.903938,206.728683 110.284630,204.606659 
	C104.024727,210.426117 95.686729,210.703400 88.062157,205.385345 
z"/>
<path fill="#000000" opacity="1.000000" stroke="none" 
	d="
M83.312660,208.788696 
	C80.249992,210.317520 79.505875,207.761078 78.755569,205.271912 
	C80.377632,206.123825 81.720367,207.335861 83.312660,208.788696 
z"/>
<path fill="#000000" opacity="1.000000" stroke="none" 
	d="
M84.778290,179.703476 
	C84.618416,180.726379 84.211914,182.012772 83.354187,183.148468 
	C83.445862,181.987503 83.988762,180.977249 84.778290,179.703476 
z"/>
<path fill="#000000" opacity="1.000000" stroke="none" 
	d="
M89.654205,175.950317 
	C89.042137,176.856537 88.070335,177.802399 86.772430,178.383179 
	C87.395706,177.342026 88.345085,176.665985 89.654205,175.950317 
z"/>
<path fill="#000000" opacity="1.000000" stroke="none" 
	d="
M85.909546,203.430313 
	C86.783829,203.504929 87.651833,203.927841 88.246490,204.718323 
	C87.283188,204.650146 86.593231,204.214386 85.909546,203.430313 
z"/>
<path fill="#000000" opacity="1.000000" stroke="none" 
	d="
M111.264374,204.306702 
	C111.076370,203.843613 111.144234,203.116669 111.631279,202.168427 
	C111.873726,202.645706 111.696983,203.344269 111.264374,204.306702 
z"/>
<path fill="#000000" opacity="1.000000" stroke="none" 
	d="
M247.964050,254.019180 
	C247.751556,253.531891 247.599670,252.996262 247.447784,252.460632 
	C247.663330,252.787857 247.878860,253.115067 248.119141,253.657043 
	C248.143906,253.871826 248.024643,253.970840 247.964050,254.019180 
z"/>
<path fill="#000000" opacity="1.000000" stroke="none" 
	d="
M372.329041,262.622131 
	C368.645477,262.754425 364.083160,264.367981 363.700226,259.248444 
	C363.374786,254.897430 367.151398,253.772339 370.990997,253.844894 
	C373.310913,253.888733 376.839783,251.171478 377.520416,255.158417 
	C378.022827,258.101227 377.182709,261.936951 372.329041,262.622131 
z"/>
<path fill="#000000" opacity="1.000000" stroke="none" 
	d="
M450.452484,244.938324 
	C447.361481,244.951385 444.671295,245.162674 442.043335,244.850342 
	C440.768646,244.698822 438.940857,243.806412 438.584351,242.811829 
	C438.212860,241.775574 439.067169,240.052628 439.813721,238.909592 
	C441.990845,235.576218 445.594574,235.228485 448.697632,236.431854 
	C450.622864,237.178436 451.988892,239.786865 453.127136,241.826736 
	C453.388062,242.294418 451.680481,243.860535 450.452484,244.938324 
z"/>
<path fill="#000000" opacity="1.000000" stroke="none" 
	d="
M415.216583,306.979156 
	C412.596313,309.671539 410.246979,308.292206 409.435425,306.176910 
	C408.680359,304.208710 409.181885,301.507629 409.881927,299.376068 
	C410.108795,298.685242 413.612030,298.072052 414.056183,298.641113 
	C415.309326,300.246918 415.882355,302.449585 416.434906,304.494995 
	C416.597198,305.095642 415.796417,305.956512 415.216583,306.979156 
z"/>
<path fill="#000000" opacity="1.000000" stroke="none" 
	d="
M334.282043,301.704407 
	C334.307251,303.122131 334.570282,304.576202 333.967712,305.219543 
	C332.727478,306.543762 331.024628,307.434753 329.512146,308.504028 
	C328.998444,306.911438 328.060883,305.312775 328.083649,303.727875 
	C328.109222,301.946716 329.001740,300.177979 329.517090,298.403839 
	C331.054077,299.393799 332.591034,300.383759 334.282043,301.704407 
z"/>
<path fill="#000000" opacity="1.000000" stroke="none" 
	d="
M224.980576,303.864868 
	C225.761124,301.688446 226.542801,299.934265 227.324493,298.180084 
	C228.496490,298.889679 230.569885,299.500122 230.661041,300.328644 
	C230.880341,302.321625 230.437515,304.515839 229.727142,306.430481 
	C229.352234,307.440948 227.857498,308.035919 225.987656,309.515289 
	C225.543182,307.205292 225.262436,305.746216 224.980576,303.864868 
z"/>
</svg>